<?xml version="1.0" encoding="UTF-8"?>
<!DOCTYPE svg PUBLIC "-//W3C//DTD SVG 1.1//EN" "http://www.w3.org/Graphics/SVG/1.1/DTD/svg11.dtd">
<!-- Creator: CorelDRAW 2021 (64-Bit) -->
<svg xmlns="http://www.w3.org/2000/svg" xml:space="preserve" width="6001px" height="2347px" version="1.1" style="shape-rendering:geometricPrecision; text-rendering:geometricPrecision; image-rendering:optimizeQuality; fill-rule:evenodd; clip-rule:evenodd"
viewBox="0 0 6000 2346.95"
 xmlns:xlink="http://www.w3.org/1999/xlink"
 xmlns:xodm="http://www.corel.com/coreldraw/odm/2003">
 <defs>
  <style type="text/css">
   <![CDATA[
    .str0 {stroke:black;stroke-width:2;stroke-linecap:round;stroke-linejoin:round;stroke-miterlimit:2.61313}
    .fil0 {fill:#330066}
    .fil1 {fill:url(#id0)}
   ]]>
  </style>
  <linearGradient id="id0" gradientUnits="userSpaceOnUse" x1="1887.93" y1="-423.45" x2="4113.07" y2="2771.4">
   <stop offset="0" style="stop-opacity:1; stop-color:#61116A"/>
   <stop offset="0.6" style="stop-opacity:1; stop-color:#451CB0"/>
   <stop offset="1" style="stop-opacity:1; stop-color:#2828F7"/>
  </linearGradient>
 </defs>
 <g id="Layer_x0020_1">
  <metadata id="CorelCorpID_0Corel-Layer"/>
  <path class="fil0 str0" d="M98.98 1822.7l614.9 -486.92 572.91 -213.97 1046.82 -115.98 951.84 -60.99 1039.83 -204.96 603.9 -539.91 -48.45 -198.97 -4879.73 0 0 1919.68 127.87 -121.65 -29.89 23.67zm282.63 -1375.55l0 117.81 -56.66 0 0 -289.84 56.66 0 0 117.4 93.35 0 0 -117.4 56.67 0 0 289.84 -56.67 0 0 -117.81 -93.35 0zm357.11 -15.9c-4.35,-14.61 -11.69,-25.75 -21.95,-33.36 -10.26,-7.68 -23.24,-11.48 -38.86,-11.48 -13.52,0 -25.69,4.14 -36.42,12.36 -10.74,8.23 -17.94,19.03 -21.67,32.48l118.9 0zm-120.67 40.36c1.7,15.76 8.02,28.26 18.82,37.3 10.73,9.1 24.73,13.66 41.78,13.66 11.42,0 21.68,-2.38 30.78,-7.21 9.04,-4.75 16.24,-11.48 21.54,-20.11l55.03 0c-9.3,23.85 -23.16,42.4 -41.71,55.65 -18.48,13.18 -39.89,19.77 -64.21,19.77 -16.3,0 -31.32,-2.86 -45.04,-8.63 -13.73,-5.77 -26.03,-14.34 -36.97,-25.61 -10.32,-10.74 -18.34,-23.17 -24.05,-37.3 -5.7,-14.07 -8.56,-28.61 -8.56,-43.42 0,-15.29 2.65,-29.62 7.88,-43.08 5.24,-13.45 12.98,-25.54 23.17,-36.28 11.14,-11.82 23.78,-20.92 37.85,-27.24 14.06,-6.39 28.53,-9.58 43.55,-9.58 18.95,0 36.69,4.28 53.13,12.91 16.44,8.63 30.44,20.79 41.99,36.41 7.06,9.45 12.23,19.98 15.62,31.67 3.4,11.61 5.1,25 5.1,40.15 0,1.15 -0.07,2.99 -0.21,5.44 -0.13,2.51 -0.2,4.28 -0.2,5.5l-175.29 0zm180.18 -125.56l53.88 0 53.34 152.87 58.77 -152.87 53.33 0 -118.29 289.84 -52.52 0 30.65 -77.04 -79.16 -212.8zm262.67 164.29l0 51.84c0,18.68 -4.08,32.47 -12.23,41.24 -8.16,8.76 -21.06,13.31 -38.73,13.72l0 -29.35c6.12,-0.82 10.4,-2.72 12.91,-5.84 2.51,-3.13 3.8,-8.16 3.8,-15.02l0 -1.97 -16.71 0 0 -54.62 50.96 0zm176.92 54.62l0 -289.84 56.66 0 0 289.84 -56.66 0zm261.24 -111.36c0,18.42 6.11,33.84 18.41,46.27 12.23,12.44 27.18,18.62 44.84,18.62 16.04,0 30.1,-6.25 42.33,-18.68 12.16,-12.51 18.28,-27.11 18.28,-43.83 0,-17.8 -6.12,-33.09 -18.41,-45.86 -12.23,-12.84 -26.57,-19.23 -43.01,-19.23 -17.26,0 -31.93,6.05 -44.16,18.21 -12.17,12.16 -18.28,26.98 -18.28,44.5zm129.63 111.36l0 -26.9c-6.11,10.87 -14.67,18.88 -25.75,24.05 -11.07,5.16 -25.2,7.74 -42.46,7.74 -32.34,0 -59.38,-11.07 -81.05,-33.15 -21.68,-22.08 -32.55,-49.53 -32.55,-82.28 0,-15.42 2.72,-30.03 8.15,-43.82 5.44,-13.8 13.18,-25.96 23.31,-36.42 10.87,-11.55 22.89,-20.04 36.14,-25.55 13.32,-5.5 28.2,-8.29 44.78,-8.29 15.9,0 29.62,2.65 41.1,7.95 11.48,5.37 20.72,13.39 27.72,24.12l0 -26.36 49.94 0 0 218.91 -49.33 0zm144.11 -218.91l0 24.8c7.41,-9.92 15.97,-17.32 25.55,-22.08 9.64,-4.83 20.58,-7.2 32.95,-7.2 17.66,0 32.75,3.12 45.25,9.37 12.57,6.25 23.37,15.97 32.34,29.22 8.63,-12.98 18.34,-22.69 29.08,-29.01 10.73,-6.39 22.62,-9.58 35.6,-9.58 26.77,0 47.36,8.42 61.69,25.27 14.34,16.85 21.47,41.04 21.47,72.43l0 125.69 -50.14 0 0 -97.02c0,-29.69 -3.26,-49.94 -9.85,-60.6 -6.59,-10.67 -17.94,-16.04 -34.11,-16.04 -16.85,0 -28.87,5.98 -36.08,18.01 -7.27,12.02 -10.87,32.61 -10.87,61.82l0 93.83 -50.55 0 0 -97.02c0,-29.55 -3.33,-49.73 -10.05,-60.54 -6.73,-10.73 -18.41,-16.1 -35.13,-16.1 -16.98,0 -29.21,5.98 -36.62,18.01 -7.4,12.02 -11.14,32.61 -11.14,61.82l0 93.83 -49.33 0 0 -218.91 49.94 0zm504.13 45.66l6.53 0c15.62,0 27.31,-2.79 34.99,-8.43 7.67,-5.64 11.48,-14.13 11.48,-25.41 0,-10.87 -3.67,-18.89 -10.94,-24.05 -7.27,-5.16 -18.55,-7.74 -33.9,-7.74l-8.16 0 0 65.63zm0 122.29l17.06 0c17.25,0 29.96,-2.85 38.04,-8.62 8.09,-5.78 12.17,-14.75 12.17,-26.77 0,-13.18 -4.28,-23.1 -12.78,-29.9 -8.49,-6.72 -20.92,-10.12 -37.43,-10.12l-17.06 0 0 75.41zm-54.62 50.96l0 -289.84 62.37 0c12.57,0 22.62,0.47 30.03,1.49 7.4,1.02 14,2.72 19.7,5.1 15.9,6.45 28.13,15.83 36.62,28.06 8.5,12.16 12.71,26.43 12.71,42.8 0,13.52 -2.52,25.07 -7.54,34.59 -5.03,9.58 -12.44,16.78 -22.29,21.67 14.34,4.28 25.62,12.43 33.84,24.53 8.22,12.09 12.3,26.5 12.3,43.21 0,13.52 -2.52,26.22 -7.55,38.11 -5.02,11.89 -12.02,21.75 -20.92,29.56 -8.9,7.47 -18.82,12.77 -29.83,15.97 -11.01,3.19 -26.56,4.75 -46.74,4.75l-72.7 0zm245.88 -111.36c0,18.42 6.12,33.84 18.41,46.27 12.23,12.44 27.18,18.62 44.85,18.62 16.03,0 30.09,-6.25 42.32,-18.68 12.17,-12.51 18.28,-27.11 18.28,-43.83 0,-17.8 -6.11,-33.09 -18.41,-45.86 -12.23,-12.84 -26.57,-19.23 -43.01,-19.23 -17.26,0 -31.93,6.05 -44.16,18.21 -12.16,12.16 -18.28,26.98 -18.28,44.5zm129.64 111.36l0 -26.9c-6.12,10.87 -14.68,18.88 -25.75,24.05 -11.08,5.16 -25.21,7.74 -42.47,7.74 -32.34,0 -59.38,-11.07 -81.05,-33.15 -21.68,-22.08 -32.55,-49.53 -32.55,-82.28 0,-15.42 2.72,-30.03 8.16,-43.82 5.43,-13.8 13.18,-25.96 23.3,-36.42 10.87,-11.55 22.9,-20.04 36.14,-25.55 13.32,-5.5 28.2,-8.29 44.78,-8.29 15.9,0 29.62,2.65 41.1,7.95 11.49,5.37 20.73,13.39 27.72,24.12l0 -26.36 49.94 0 0 218.91 -49.32 0zm144.1 -218.91l0 24.8c7.41,-9.92 15.97,-17.32 25.55,-22.08 9.65,-4.83 20.58,-7.2 32.95,-7.2 15.76,0 29.55,2.99 41.31,8.97 11.75,5.97 21.54,14.94 29.35,26.83 5.03,8.02 8.63,17.06 10.87,27.18 2.17,10.19 3.26,25 3.26,44.5l0 115.91 -50.95 0 0 -97.02c0,-29.28 -3.4,-49.39 -10.13,-60.33 -6.79,-10.87 -18.48,-16.31 -35.06,-16.31 -16.98,0 -29.21,5.98 -36.62,18.01 -7.4,12.02 -11.14,32.61 -11.14,61.82l0 93.83 -49.33 0 0 -218.91 49.94 0zm330 218.91l0 -23.71c-7.41,9.92 -15.97,17.33 -25.55,22.15 -9.65,4.82 -20.65,7.27 -32.95,7.27 -27.45,0 -48.58,-8.43 -63.32,-25.28 -14.75,-16.85 -22.08,-41.03 -22.08,-72.63l0 -126.71 51.36 0 0 98.31c0,29.56 3.4,49.81 10.19,60.68 6.8,10.87 18.48,16.3 35.06,16.3 17.05,0 29.22,-6.11 36.62,-18.27 7.41,-12.23 11.08,-32.96 11.08,-62.1l0 -94.92 50.14 0 0 218.91 -50.55 0zm95.39 0l0 -289.84 49.73 0 0 289.84 -49.73 0zm134.05 -111.36c0,18.42 6.11,33.84 18.41,46.27 12.23,12.44 27.18,18.62 44.84,18.62 16.04,0 30.1,-6.25 42.33,-18.68 12.16,-12.51 18.28,-27.11 18.28,-43.83 0,-17.8 -6.12,-33.09 -18.41,-45.86 -12.23,-12.84 -26.57,-19.23 -43.01,-19.23 -17.26,0 -31.93,6.05 -44.16,18.21 -12.17,12.16 -18.28,26.98 -18.28,44.5zm129.63 111.36l0 -26.9c-6.11,10.87 -14.67,18.88 -25.75,24.05 -11.07,5.16 -25.2,7.74 -42.46,7.74 -32.34,0 -59.38,-11.07 -81.06,-33.15 -21.67,-22.08 -32.54,-49.53 -32.54,-82.28 0,-15.42 2.72,-30.03 8.15,-43.82 5.44,-13.8 13.18,-25.96 23.31,-36.42 10.87,-11.55 22.89,-20.04 36.14,-25.55 13.32,-5.5 28.2,-8.29 44.78,-8.29 15.9,0 29.62,2.65 41.1,7.95 11.48,5.37 20.72,13.39 27.72,24.12l0 -26.36 49.94 0 0 218.91 -49.33 0z"/>
  <path class="fil1" d="M1 2346.95c0,0 332.61,-1049.05 1875.13,-1248.58 1542.52,-199.53 3682.03,118.75 4123.87,-1097.37l-1465.44 0c-431.95,1217.28 -2391.73,835.97 -3229.78,995.6 -838.06,159.62 -973.23,341.81 -1303.78,575.29l0 101.62 0 673.44z"/>
 </g>
</svg>
